<?xml version="1.0" encoding="utf-8"?>
<!-- Generator: Adobe Illustrator 27.0.1, SVG Export Plug-In . SVG Version: 6.00 Build 0)  -->
<svg version="1.1" id="Layer_1" xmlns="http://www.w3.org/2000/svg" xmlns:xlink="http://www.w3.org/1999/xlink" x="0px" y="0px"
	 viewBox="0 0 537.93 86.09" style="enable-background:new 0 0 537.93 86.09;" xml:space="preserve">
<style type="text/css">
	.st0{enable-background:new    ;}
	.st1{fill:#FFFFFF;}
</style>
<g class="st0">
	<path class="st1" d="M118.56,48.78c0-1-0.35-1.76-1.05-2.29s-1.97-1.1-3.8-1.69s-3.28-1.17-4.34-1.75
		c-2.91-1.57-4.36-3.69-4.36-6.35c0-1.38,0.39-2.62,1.17-3.7s1.9-1.93,3.36-2.54s3.1-0.91,4.91-0.91c1.83,0,3.46,0.33,4.89,0.99
		s2.54,1.6,3.33,2.8s1.19,2.58,1.19,4.11h-5.27c0-1.17-0.37-2.08-1.11-2.73s-1.78-0.98-3.11-0.98c-1.29,0-2.29,0.27-3.01,0.82
		s-1.07,1.26-1.07,2.15c0,0.83,0.42,1.53,1.26,2.09s2.07,1.09,3.7,1.58c3,0.9,5.19,2.02,6.56,3.36s2.06,3,2.06,4.99
		c0,2.21-0.84,3.95-2.51,5.21s-3.93,1.89-6.77,1.89c-1.97,0-3.76-0.36-5.38-1.08s-2.85-1.71-3.7-2.96s-1.27-2.71-1.27-4.36h5.29
		c0,2.82,1.69,4.24,5.06,4.24c1.25,0,2.23-0.25,2.94-0.76S118.56,49.7,118.56,48.78z"/>
	<path class="st1" d="M138.04,41.44l5.33-11.53h5.77l-8.4,16.31v9.28h-5.36v-9.28l-8.4-16.31h5.78L138.04,41.44z"/>
	<path class="st1" d="M162.74,46.13h-4.2v9.37h-5.27V29.9h9.51c3.02,0,5.36,0.67,7,2.02s2.46,3.25,2.46,5.71
		c0,1.75-0.38,3.2-1.13,4.37s-1.9,2.09-3.44,2.79l5.54,10.46v0.25h-5.66L162.74,46.13z M158.54,41.86h4.25
		c1.32,0,2.35-0.34,3.08-1.01s1.09-1.6,1.09-2.79c0-1.21-0.34-2.16-1.03-2.85s-1.74-1.04-3.16-1.04h-4.24V41.86z"/>
	<path class="st1" d="M192.49,50.22h-9.25l-1.76,5.27h-5.61l9.53-25.59h4.89l9.58,25.59h-5.61L192.49,50.22z M184.67,45.95h6.4
		l-3.22-9.58L184.67,45.95z"/>
	<path class="st1" d="M223.79,46.97c-0.2,2.75-1.22,4.92-3.05,6.5s-4.25,2.37-7.25,2.37c-3.28,0-5.86-1.1-7.74-3.31
		s-2.82-5.24-2.82-9.1v-1.56c0-2.46,0.43-4.63,1.3-6.5s2.11-3.31,3.72-4.32s3.48-1.5,5.62-1.5c2.95,0,5.33,0.79,7.14,2.37
		s2.85,3.8,3.13,6.66h-5.27c-0.13-1.65-0.59-2.85-1.38-3.59s-2-1.12-3.61-1.12c-1.76,0-3.07,0.63-3.95,1.89s-1.32,3.21-1.34,5.86
		v1.93c0,2.77,0.42,4.79,1.26,6.06s2.16,1.92,3.96,1.92c1.63,0,2.84-0.37,3.65-1.12s1.26-1.9,1.38-3.45H223.79z"/>
	<path class="st1" d="M248.42,29.9v16.86c0,2.8-0.88,5.02-2.63,6.64s-4.15,2.44-7.18,2.44c-2.99,0-5.36-0.79-7.12-2.37
		s-2.65-3.76-2.69-6.52V29.9h5.27V46.8c0,1.68,0.4,2.9,1.2,3.67s1.91,1.15,3.33,1.15c2.96,0,4.47-1.56,4.52-4.68V29.9H248.42z"/>
	<path class="st1" d="M267.82,48.78c0-1-0.35-1.76-1.05-2.29s-1.97-1.1-3.8-1.69s-3.28-1.17-4.34-1.75
		c-2.91-1.57-4.36-3.69-4.36-6.35c0-1.38,0.39-2.62,1.17-3.7s1.9-1.93,3.36-2.54s3.1-0.91,4.91-0.91c1.83,0,3.46,0.33,4.89,0.99
		s2.54,1.6,3.33,2.8s1.19,2.58,1.19,4.11h-5.27c0-1.17-0.37-2.08-1.11-2.73s-1.78-0.98-3.11-0.98c-1.29,0-2.29,0.27-3.01,0.82
		s-1.07,1.26-1.07,2.15c0,0.83,0.42,1.53,1.26,2.09s2.07,1.09,3.7,1.58c3,0.9,5.19,2.02,6.56,3.36s2.06,3,2.06,4.99
		c0,2.21-0.84,3.95-2.51,5.21s-3.93,1.89-6.77,1.89c-1.97,0-3.76-0.36-5.38-1.08s-2.85-1.71-3.7-2.96s-1.27-2.71-1.27-4.36h5.29
		c0,2.82,1.69,4.24,5.06,4.24c1.25,0,2.23-0.25,2.94-0.76S267.82,49.7,267.82,48.78z"/>
	<path class="st1" d="M293.88,44.41h-10.12v6.86h11.88v4.24h-17.16V29.9h17.12v4.27h-11.85v6.1h10.12V44.41z"/>
</g>
<g class="st0">
	<path class="st1" d="M319.5,45.14H315V55.5h-3.23V29.9h7.17c2.51,0,4.41,0.65,5.7,1.96s1.93,3.22,1.93,5.74
		c0,1.58-0.35,2.96-1.05,4.14s-1.68,2.07-2.96,2.66l4.96,10.88v0.21h-3.46L319.5,45.14z M315,42.38h3.9c1.35,0,2.42-0.43,3.23-1.3
		c0.8-0.87,1.2-2.03,1.2-3.49c0-3.29-1.49-4.93-4.46-4.93H315V42.38z"/>
	<path class="st1" d="M344.95,43.67h-9.05v9.07h10.55v2.76h-13.76V29.9h13.59v2.76h-10.37v8.24h9.05V43.67z"/>
	<path class="st1" d="M363.53,49.03c0-1.28-0.35-2.26-1.04-2.94s-1.94-1.34-3.74-1.99s-3.18-1.32-4.14-2.03s-1.67-1.52-2.14-2.43
		s-0.71-1.95-0.71-3.12c0-2.03,0.68-3.7,2.03-5.01s3.13-1.97,5.32-1.97c1.5,0,2.84,0.33,4.01,1c1.17,0.67,2.07,1.6,2.71,2.79
		c0.63,1.19,0.95,2.5,0.95,3.93h-3.23c0-1.58-0.38-2.81-1.14-3.67s-1.86-1.3-3.29-1.3c-1.3,0-2.31,0.36-3.02,1.09
		s-1.07,1.75-1.07,3.06c0,1.08,0.39,1.98,1.16,2.71c0.77,0.73,1.97,1.38,3.59,1.96c2.52,0.83,4.32,1.86,5.41,3.08
		s1.63,2.81,1.63,4.78c0,2.07-0.67,3.74-2.02,4.98s-3.18,1.87-5.5,1.87c-1.49,0-2.86-0.33-4.12-0.98s-2.25-1.56-2.97-2.74
		s-1.08-2.53-1.08-4.05h3.23c0,1.58,0.44,2.81,1.33,3.69s2.09,1.32,3.61,1.32c1.42,0,2.48-0.36,3.2-1.09S363.53,50.28,363.53,49.03z
		"/>
	<path class="st1" d="M387.76,32.66h-6.73V55.5h-3.22V32.66h-6.71V29.9h16.66V32.66z"/>
	<path class="st1" d="M403.89,48.8h-8.65l-1.99,6.7h-3.3l8.24-25.59h2.76l8.26,25.59h-3.3L403.89,48.8z M396.08,46.04h6.98
		l-3.5-11.64L396.08,46.04z"/>
	<path class="st1" d="M429.45,29.9V48.1c-0.02,2.43-0.73,4.32-2.11,5.7s-3.31,2.06-5.78,2.06c-2.53,0-4.46-0.67-5.8-2.01
		s-2.02-3.25-2.04-5.74V29.9h3.2v18.06c0,1.72,0.37,3.01,1.1,3.86s1.91,1.27,3.54,1.27c1.64,0,2.83-0.42,3.56-1.27
		s1.1-2.13,1.1-3.86V29.9H429.45z"/>
	<path class="st1" d="M443.95,45.14h-4.5V55.5h-3.23V29.9h7.17c2.51,0,4.41,0.65,5.7,1.96s1.93,3.22,1.93,5.74
		c0,1.58-0.35,2.96-1.05,4.14s-1.68,2.07-2.96,2.66l4.96,10.88v0.21h-3.46L443.95,45.14z M439.45,42.38h3.9
		c1.35,0,2.42-0.43,3.23-1.3c0.8-0.87,1.2-2.03,1.2-3.49c0-3.29-1.49-4.93-4.46-4.93h-3.87V42.38z"/>
	<path class="st1" d="M469.05,48.8h-8.65l-1.99,6.7h-3.3l8.24-25.59h2.76l8.26,25.59h-3.3L469.05,48.8z M461.25,46.04h6.98
		l-3.5-11.64L461.25,46.04z"/>
	<path class="st1" d="M496.38,55.5h-3.23l-10.25-19.72V55.5h-3.23V29.9h3.23l10.28,19.81V29.9h3.2V55.5z"/>
	<path class="st1" d="M518.2,32.66h-6.73V55.5h-3.22V32.66h-6.71V29.9h16.66V32.66z"/>
	<path class="st1" d="M534.68,49.03c0-1.28-0.35-2.26-1.04-2.94s-1.94-1.34-3.74-1.99s-3.18-1.32-4.14-2.03s-1.67-1.52-2.14-2.43
		s-0.71-1.95-0.71-3.12c0-2.03,0.68-3.7,2.03-5.01s3.13-1.97,5.32-1.97c1.5,0,2.84,0.33,4.01,1c1.17,0.67,2.07,1.6,2.71,2.79
		c0.63,1.19,0.95,2.5,0.95,3.93h-3.23c0-1.58-0.38-2.81-1.14-3.67s-1.86-1.3-3.29-1.3c-1.3,0-2.31,0.36-3.02,1.09
		s-1.07,1.75-1.07,3.06c0,1.08,0.39,1.98,1.16,2.71c0.77,0.73,1.97,1.38,3.59,1.96c2.52,0.83,4.32,1.86,5.41,3.08
		s1.63,2.81,1.63,4.78c0,2.07-0.67,3.74-2.02,4.98s-3.18,1.87-5.5,1.87c-1.49,0-2.86-0.33-4.12-0.98s-2.25-1.56-2.97-2.74
		s-1.08-2.53-1.08-4.05h3.23c0,1.58,0.44,2.81,1.33,3.69s2.09,1.32,3.61,1.32c1.42,0,2.48-0.36,3.2-1.09S534.68,50.28,534.68,49.03z
		"/>
</g>
<g id="logo" transform="translate(0.01)">
	<path id="Path_1" class="st1" d="M45.55,0c1.63,0.22,3.28,0.36,4.89,0.68C64.99,3.5,75.52,11.61,82.02,24.9
		c2.97,6.04,4.35,12.74,4,19.46c-0.76,15.51-7.8,27.44-20.99,35.62c-7.11,4.46-15.44,6.57-23.81,6.02
		c-16.15-0.98-28.24-8.67-36.17-22.77c-2.89-5.21-4.57-11-4.92-16.95c-0.03-0.24-0.08-0.49-0.14-0.72v-5.04
		c0.06-0.24,0.11-0.48,0.14-0.72c0.37-5.94,2.05-11.73,4.91-16.95C11.74,10.72,21.91,3.3,35.53,0.68c1.64-0.32,3.32-0.46,4.98-0.68
		H45.55z M42.97,83.21c22.19,0.03,40.2-17.93,40.23-40.11S65.27,2.9,43.09,2.87C20.9,2.83,2.89,20.79,2.86,42.98
		c0,0.02,0,0.03,0,0.05C2.9,65.17,20.82,83.13,42.97,83.21z"/>
	<path id="Path_2" class="st1" d="M49.38,55.61c0.23-5.2,0.38-8.98,0.57-12.76c0.07-0.5-0.18-0.98-0.63-1.21
		c-1.81-1.19-3-3.12-3.24-5.27c-0.35-2.56-0.14-5.17,0.63-7.63c0.23-0.78,0.46-1.55,0.7-2.33c0.73-2.71,3.09-4.66,5.88-4.88
		c2.9-0.26,5.61,1.47,6.59,4.21c1.18,2.76,1.78,5.74,1.78,8.74c-0.1,3.04-0.96,5.67-3.7,7.39c-0.22,0.22-0.33,0.53-0.31,0.84
		c0.18,4.56,0.39,9.12,0.59,13.68c0.14,3.02,0.31,6.04,0.39,9.07c0.07,2.41-1.71,4.47-4.1,4.76c-2.3,0.37-4.54-0.96-5.32-3.16
		c-0.22-0.84-0.3-1.7-0.23-2.56C49.11,61.07,49.28,57.63,49.38,55.61z M52.35,53.38L52.35,53.38c-0.05,1.18-0.1,2.35-0.16,3.53
		c-0.13,2.77-0.27,5.54-0.37,8.31c-0.16,1.03,0.53,1.99,1.56,2.15c0.14,0.02,0.29,0.03,0.44,0.02c1.05,0.05,1.95-0.76,2-1.82
		c0.01-0.13,0-0.26-0.02-0.38c0-0.2-0.02-0.39-0.03-0.59c-0.35-7.69-0.71-15.38-1.06-23.08c-0.09-0.75,0.33-1.47,1.03-1.75
		c0.43-0.2,0.84-0.44,1.23-0.72c1.55-1.17,1.79-2.89,1.86-4.66c-0.02-2.67-0.58-5.3-1.63-7.75c-0.78-1.86-2.93-2.74-4.79-1.95
		c-0.86,0.36-1.55,1.04-1.93,1.9c-1.08,2.5-1.65,5.19-1.66,7.91c0.08,2.37,0.77,4.34,3.17,5.33c0.67,0.28,1.06,0.99,0.93,1.71
		C52.71,45.49,52.52,49.44,52.35,53.38L52.35,53.38z"/>
	<path id="Path_3" class="st1" d="M33.62,52.82c-0.2-4-0.39-8-0.62-12c-0.08-0.76,0.2-1.51,0.76-2.03c1.03-0.99,2.05-1.99,3.02-3.04
		c0.3-0.34,0.48-0.77,0.5-1.23c0.04-3.73,0-7.45,0.05-11.18c0.02-0.57,0.24-1.11,0.64-1.52c0.56-0.46,1.39-0.37,1.85,0.19
		c0.19,0.23,0.29,0.52,0.3,0.82c0.06,4.4,0.04,8.79-0.01,13.19c-0.09,0.44-0.32,0.83-0.66,1.12c-1.02,1.08-2.11,2.09-3.13,3.17
		c-0.24,0.26-0.37,0.59-0.38,0.94c0.3,6.6,0.65,13.2,0.96,19.81c0.16,1.7,0.18,3.4,0.08,5.11c-0.29,2.49-2.5,4.3-5,4.1
		c-2.46-0.13-4.42-2.11-4.53-4.58c-0.06-1.4,0.07-2.8,0.14-4.2c0.33-6.69,0.68-13.37,0.98-20.06c-0.01-0.45-0.17-0.89-0.47-1.23
		c-0.98-1.07-2.09-2.04-3.05-3.12c-0.38-0.43-0.61-0.98-0.65-1.55c-0.05-4.09-0.03-8.18-0.03-12.27c0-0.65,0.14-1.3,0.79-1.53
		c0.45-0.17,0.96-0.14,1.38,0.09c0.4,0.4,0.64,0.93,0.66,1.5c0.05,3.72,0.04,7.45,0.02,11.18c-0.03,0.5,0.18,0.98,0.55,1.32
		c1.03,0.99,2.02,2.02,3.04,3.01c0.52,0.48,0.78,1.18,0.72,1.88c-0.42,8.08-0.84,16.17-1.24,24.25c-0.19,1.04,0.45,2.05,1.46,2.34
		c0.86,0.28,1.8-0.13,2.19-0.95c0.2-0.52,0.28-1.07,0.25-1.62C34.03,60.75,33.81,56.78,33.62,52.82L33.62,52.82z"/>
	<path id="Path_4" class="st1" d="M68.83,43.06c0.02-5.73-1.88-11.31-5.41-15.82c-0.25-0.3-0.48-0.62-0.69-0.95
		c-0.44-0.63-0.31-1.49,0.31-1.95c0.6-0.47,1.46-0.37,1.93,0.23c0.01,0.01,0.01,0.02,0.02,0.03c0.63,0.75,1.23,1.53,1.77,2.34
		c7.68,11.34,6.28,26.52-3.34,36.26c-0.51,0.63-1.43,0.73-2.06,0.22c-0.01-0.01-0.03-0.02-0.04-0.03c-0.59-0.51-0.65-1.4-0.13-1.99
		c0.05-0.06,0.11-0.11,0.17-0.17c2-2.08,3.66-4.46,4.94-7.05C67.96,50.71,68.82,46.91,68.83,43.06z"/>
	<path id="Path_5" class="st1" d="M14.35,42.51c0.09-5.82,1.96-11.46,5.36-16.18c0.38-0.7,1.25-0.97,1.95-0.59
		c0.05,0.03,0.11,0.06,0.16,0.1c0.65,0.48,0.79,1.39,0.31,2.04c-0.03,0.04-0.07,0.08-0.1,0.12c-1.84,2.55-3.18,5.42-3.96,8.47
		c-2.09,8.8-0.29,16.69,5.59,23.61c0.35,0.41,0.73,0.78,1.06,1.2c0.55,0.57,0.54,1.48-0.03,2.03c0,0-0.01,0.01-0.01,0.01
		c-0.54,0.54-1.41,0.54-1.95,0.01c-0.05-0.05-0.1-0.11-0.14-0.17c-1.17-1.28-2.27-2.62-3.29-4.03
		C15.98,54.24,14.25,48.43,14.35,42.51z"/>
	<path id="Path_6" class="st1" d="M43.1,14.19c2.15,0.31,4.31,0.58,6.46,0.94c0.77,0.04,1.35,0.69,1.31,1.46
		c0,0.09-0.02,0.18-0.04,0.27c-0.17,0.78-0.94,1.26-1.72,1.09c-0.06-0.01-0.12-0.03-0.17-0.05c-4.22-0.96-8.61-0.86-12.78,0.27
		c-0.75,0.21-1.49,0.48-2.24,0.69c-0.71,0.29-1.52-0.05-1.8-0.76c-0.01-0.03-0.02-0.06-0.03-0.08c-0.27-0.73,0.1-1.54,0.83-1.81
		c0.05-0.02,0.09-0.03,0.14-0.04c2.68-1,5.49-1.58,8.34-1.72c0.56-0.03,1.12,0,1.68,0C43.08,14.34,43.09,14.27,43.1,14.19z"/>
	<path id="Path_7" class="st1" d="M28.7,28.68c0-1.79-0.01-3.58,0-5.38c0.01-1.1,0.51-1.74,1.37-1.77c0.88-0.03,1.49,0.64,1.49,1.76
		c0.01,3.61,0.01,7.22,0,10.83c-0.01,1.09-0.56,1.71-1.43,1.71c-0.89,0-1.42-0.6-1.43-1.7C28.68,32.31,28.7,30.5,28.7,28.68z"/>
	<path id="Path_8" class="st1" d="M35.83,28.75c0,1.9,0.02,3.81-0.01,5.71c0.03,0.73-0.54,1.35-1.27,1.37c-0.01,0-0.02,0-0.03,0
		c-0.74,0.07-1.39-0.46-1.47-1.2c-0.05-0.3-0.07-0.61-0.06-0.92c-0.01-2.66-0.01-5.32,0-7.98c0-0.76,0-1.51,0-2.27
		c0-0.22,0.01-0.45,0.05-0.67c0.08-0.73,0.7-1.27,1.43-1.27c0.76,0.01,1.37,0.63,1.36,1.39c0,0.01,0,0.02,0,0.03
		C35.86,24.88,35.83,26.81,35.83,28.75z"/>
	<path id="Path_9" class="st1" d="M43.02,68.88c0.98-0.06,1.96-0.12,2.94-0.16s1.6,0.42,1.7,1.23c0.11,0.77-0.43,1.47-1.2,1.58
		c-0.09,0.01-0.17,0.02-0.26,0.01c-2.12,0.07-4.25,0.07-6.37,0c-0.76,0.03-1.4-0.57-1.43-1.33c0-0.07,0-0.15,0.01-0.22
		c0.07-0.78,0.77-1.36,1.55-1.29c0.04,0,0.08,0.01,0.11,0.02C41.07,68.75,42.04,68.82,43.02,68.88z"/>
</g>
</svg>
